<svg id="Layer_1" data-name="Layer 1" xmlns="http://www.w3.org/2000/svg" viewBox="0 0 1191.99 210.8"><defs><style>.cls-1{fill:#fff;}</style></defs><title>ErikMerisalu-Website-LandingPage-Title</title><path class="cls-1" d="M1130.51,14.6c.64,1.09,1.27,2.19,2.08,3.58V23.8l4.2,4.91v8.53c-6.13,5.61-8.48,13.93-12.77,21.08a13.18,13.18,0,0,0-1.18,4.78,91.77,91.77,0,0,1-7.93,25.46,58.32,58.32,0,0,0-2.49,7.9c-2.55,3.15-5,5.9-7.1,8.85s-3.94,6.06-3.81,10a16.16,16.16,0,0,1-1.38,6.37c-1.38,3.44-.63,6.49,1.14,9.4a75.45,75.45,0,0,0,5.49,8.19c5.1,6.4,6.76,14,8.14,21.77a89.28,89.28,0,0,0,2.38,10.66c.5,1.6,2,2.91,3.35,4.9,6.72-5.15,15.57-5.6,20.44-13.22l2.6,2a13.64,13.64,0,0,1-1.2,2.45c-2.36,3-4.52,6-4.88,10.15-.24,2.77-2.25,5-4.8,6.36-8.12,4.33-17.9,3-22.42-6.25-3.1-6.37-6.81-12.4-8.44-19.44-.73-3.14-2.45-6-3.72-9-1.34-3.17-2.53-6.41-4.06-9.47-.76-1.51-2.16-2.69-3.3-4.07-6.59,3.68-7.65,9.56-8.14,16.37-9.52,8.42-18,18.34-26.2,28.48,1,2.25,2.68,2.18,4.28,1.59,2-.75,4-1.83,6-2.68s4.15-2.43,7.17-1.38c-.42,1-.57,2.15-1.24,2.63a64,64,0,0,1-7.37,4.61,8.33,8.33,0,0,1-7.92,0c-3.84-1.91-7.86-1.73-11.83-.83a26.3,26.3,0,0,1-15.65-.85,12.34,12.34,0,0,0-2-.75c-6.59-1.3-12-4.38-15.36-10.38-.16-.28-.61-.39-1.5-.93l-6.91,3.28c-.8,2-1.54,3.87-2.28,5.72l.71.69-5,3.31c.17,3.31.3,5.67.44,8.36-1.23,1.39-2.53,2.86-3.86,4.38-5.21-2.9-7.32-7.38-8.15-12.92-7.82-2.24-15.66-4.58-22-10.55L957.65,183l-6.9.48c-3.62,3-7.87,6.15-11.74,9.75-3.29,3.08-6.79,4.84-11.35,4.42-2.74-.26-5.5-.18-8.25-.35-5.7-.37-10.42-2.83-14.84-6.4-2.79-2.25-6.4-3.46-7.93-7.13-1.89-4.53-4.35-8.92-2.93-14.3l3.87-2.74v-3.8c4.67-.17,4.67-.17,14.83,5.46a35.15,35.15,0,0,1,2.61-5.62,49.47,49.47,0,0,1,4.84-5.27c-.28-5.25.86-10.91-.81-16.52a8.29,8.29,0,0,1-.12-2.73c.47-7.54-4-11.56-10.45-15-7.71,8.07-13.33,17.55-20.86,25.69v9.57c-4.74,2.88-9.31,5.84-14.06,8.48-3.14,1.74-6.54,1.59-10.54.13,3.33-3.89,7.6-5.64,11.19-8.89.2-1.07.45-2.48.78-4.28,10.58-9.11,20.82-18.92,25.42-32.07,2.32-3.58,4-6.59,6.1-9.33,1.93-2.56,4.22-4.84,7-8,.66,2.64,1.41,4.46,1.51,6.32a8.15,8.15,0,0,0,3.42,6.46,58.6,58.6,0,0,1,9.34,9.15,23.83,23.83,0,0,1,3.69,8.42,46.42,46.42,0,0,0,10.12,19.5c-.35,4.35-.63,8.85-3.21,12.87a10.13,10.13,0,0,0-1.29,3c-1.27,5.23-5,7.9-9.74,9.5-2.85,1-5.53,2-6.45,5.29a10.44,10.44,0,0,0-.08,1.6c6.3,2.33,12.51,3,18.58-1.06,1.52-1,3-2.1,4.59-3,5.48-3.05,8.86-7.66,11.62-13.27a70.57,70.57,0,0,1,10.43-15.85c5.09-5.7,11.1-10.62,17-15.56a60.5,60.5,0,0,1,10.45-7,17.94,17.94,0,0,1,6.89-1.48c5.62-.43,11.26-.61,16.92-.89L1024,121l.65.5c.53-2.32,1.05-4.63,1.62-7.1,1.54-2.19,3.25-4.34,6.92-3.24a17,17,0,0,1,4.93,9.19c.76,4.46,2.21,8.79,3.34,13.1l-18.16,27c.9,4.46,2.66,7.58,6.08,10,2.35,1.65,4.1,4.17,5.87,6l5.37,1.63c5.38-2.3,10.56-5.61,16.44-5.57.77-.64,1.36-.91,1.58-1.36,2.73-5.63,8.05-8.84,12.2-13.13,2.1-2.19,4-4.39,4.22-7.48.28-3.6,2.46-6,4.71-8.45a58.12,58.12,0,0,0,3.83-4.61c3.78-5.14,4.45-10.08-.08-15.43-1.61-1.9-2.25-5-2.44-7.65-.6-8.23-.92-16.49-1-24.74a20,20,0,0,1,5.08-13.5c2.44-2.89,4.11-6.43,6.16-9.65,3.61-5.67,5.62-12.28,10.66-17.14,1.9-1.84,3.15-4.47,4.38-6.9,3.35-6.67,6.78-13.32,9.68-20.19,1.33-3.16,3.65-5.26,5.72-7.68ZM1096.34,111c1.56-2.15,3.13-4.13,4.51-6.23,4.24-6.45,7.11-13.57,10.09-20.65,1.62-3.86,3.81-7.5,5.12-11.45,1.26-3.78,1.7-7.83,2.52-11.75a28.84,28.84,0,0,1,8.31-15.15c3.54-3.33,4.91-7.53,7.27-11.23a13.61,13.61,0,0,0-3.86-7.2c-2.35,2.36-2.4,2.47-3.3,5a94.17,94.17,0,0,1-3.82,10.23c-1.69,3.4-3.39,7.17-6.13,9.6-6.26,5.54-13.26,10.23-19.76,15.52-5.27,4.29-9.35,9.26-7.76,16.9,1.3,6.23,2.16,12.56,3.43,18.79C1093.48,105.85,1093.29,108.82,1096.34,111Zm-87.2,41.34c1.17-3.76,2.15-6.93,3.12-10.06-3.66-1.4-3.66-1.4-7.88-.29a35.56,35.56,0,0,0-2.88,4.29,9.71,9.71,0,0,1-6.17,5c-8.6,2.64-15.31,8.21-22.13,14.06l-5.27,1c.57,3.91,3.35,5.45,5.73,7.62l6.47-1.26c3,1.07,6.06,3.08,9.11,3,3.25-.06,6.47-2.06,9.7-3.24a10.22,10.22,0,0,0,2-.93c3.34-2.15,7.08-3.75,9-7.68,2.87-5.89,6-11.64,8.94-17.5.33-.65,0-1.64-.09-3C1013.82,144.72,1015,151.32,1009.14,152.29Zm-38,2.85c4,1.67,6.07-.52,7.91-2.66,1.57-1.82,4.94-3,2.91-7C978.28,148.53,974,150.48,971.12,155.14Zm-56,15c-1,3.24-2.27,5.76-1.79,8.66,2.76.76,3.91-1,5.16-2.38C918.43,172.79,918.43,172.79,915.17,170.15Zm17.94-16.45c-2,1.7-1.14,2.9-.43,4.19.94,1.71,1.85,3.35,4.52,3.38C937.38,157.73,936.13,155.38,933.11,153.7ZM1025.06,126c-2.29,2.29-2.4,3.9-.37,5.89C1026.34,130,1026.09,128.37,1025.06,126Zm-94.34,40.81c-2.3-.54-3.26-.09-1.77,2.11Z" transform="translate(-18.01 -14.6)"/><path class="cls-1" d="M18,164.7a12,12,0,0,1,9.5-4.63,19.34,19.34,0,0,0,4.88-.78c2.84-.78,5.46-1.81,7.1-4.68,1.06-1.87,2.8-3.35,4.33-5.12l3.81,1.17c7.86-4.36,15.81-8.74,23.7-13.21.51-.28.66-1.19,1.15-2.14-6.06-1.64-11.86-3.07-17.58-4.79s-10.68-5.34-15.43-9.1S30,114,26.93,108.77c1.14-2.66,3.31-3.11,5.4-3.78,6.06-1.94,11.4-5,15.51-10.5l.31-6.95C52.24,81.81,56.38,76,64.83,75.2c2.72,4.57,4.47,9.15,3.51,14.46-.64.61-1.08,1.37-1.71,1.58-8.52,2.83-14.64,9.56-22.36,13.7-2.49,1.33-3.77,3.4-3.11,6.13.39.51.54,1,.83,1.07,5.23,2.21,9.76,5.58,14.62,8.4,6.93,4,14.81,6.1,22.73,7.3,3.16.47,6.54-.57,9.82-.92l9.37-1,3.91,3.68c.88,3.4-.21,5.51-2.89,7.25a49.6,49.6,0,0,1-19.62,8c-10.19,1.56-19.57,5.3-28.64,10.34-1.24,3.93.81,7.37,1.8,11,1.1,4.1,3,7.27,7.12,9.06,2.11.92,3.85,2.73,5.71,4.18,6.56,5.14,14.22,5.48,22,4.81,7.34-.64,14.24-3.16,20.83-6.31,3.72-1.78,5.57-5.21,5.7-9.39.07-2.2,0-4.4,0-6.94,1.64-3.53,5-5.76,8.59-8.13l-.75-3.7c-7.76-.13-14.25,6.27-22.6,3,.55-1.14.77-2.57,1.59-3.11a20.6,20.6,0,0,1,5.42-2.4c4.54-1.35,9.19-2.33,13.69-3.79a14.29,14.29,0,0,1,9.67-.17c5.45,2.05,10.77,1.48,16.12-.27,5.54-1.81,11-3.92,16.68-5.21,4.9-1.12,9.95-2.49,15.68-1.14.52,4,1,8,1.54,11.91s1.3,7.95,1.74,11.94c.51,4.58,3.32,8.07,5.51,11.78,2.28,3.87,6.33,4.37,10.24,3.3,6.71-1.83,13.26-4,17.93-9.87,1.74-2.19,4.56-3.53,6.84-5.31,1.43-1.12,2.78-2.34,3.91-3.29,1.54-3.83,1.49-7.14-.81-10.24a5.69,5.69,0,0,1-.57-.95c-2.94-6.23-1.8-9,4.8-11.8.34.13.87.17,1,.41,2.43,5.27,6.76,9.38,8.86,14.88,1.36,3.55,3.24,6.9,6.47,9.3,2.18,1.63,4.43,2.61,7.13,1.9,3-.78,5.92-1.68,8.87-2.55,1-.29,1.95-.66,3.66-1.25a41.05,41.05,0,0,1-6.41,12.57c-1.13,1.53-3.65,2.38-5.69,2.8-2.27.47-4.72.11-7,.11l-16.13-11.58c-4.64,2.89-6.37,8.29-9.63,13-1.42.5-3.09,1.48-4.83,1.66-6.22.65-11.39,3.66-16.58,6.75a27.51,27.51,0,0,1-6.32,3.17c-5,1.4-10.26-.78-13.19-5.7q-6.57-11-12.42-22.45c-1.12-2.17-1.18-4.93-1.51-7.44a32.15,32.15,0,0,1,0-4.47,3.78,3.78,0,0,0-4.77-1.47c-3.8,1.24-7.55,2.66-11.33,3.95-4.48,1.54-8.89,3.48-13.49,4.38-4.1.81-7.35,2.58-9.6,5.78-3.3,4.68-7.85,9-5.83,16.26.19.29.74,1,1.2,1.81,2.65,4.55,2.24,6.91-2.17,9.58-4.84,2.94-9.68,5.78-15.93,3.52-1.94-.71-4.66.2-6.86.87-4.87,1.48-9.47,4.1-14.79,3.56a83.66,83.66,0,0,1-9.69-1.48c-7.47-1.67-14.42-4.94-21.6-7.41-11.87-4.07-22.3-10.54-33-16.64Zm23.58-3.51c-3.17.39-4.46,1.8-3.52,4.95,2.12,1.59,4.1,3.82,7.37,2.72C45.2,164.74,45.2,164.74,41.59,161.19Z" transform="translate(-18.01 -14.6)"/><path class="cls-1" d="M1134.93,225.4,1132,221v-4.68l9.65-13.5c2.6-6.22,5.54-14.53,13.54-19.72-.44-1.49-.44-3-1.2-3.75-2.54-2.47-3.28-5.62-4.11-8.82-1-3.69-2.24-7.32-3-11a53.46,53.46,0,0,1-1-10.32c0-3.47.73-6.92,1.06-10.39.64-6.74,4.21-11.43,10.33-15l3.69,3.88c.2,3.76.4,6.87.51,10a10.37,10.37,0,0,1-.19,3.83c-3.35,9.09,1.28,17.09,3.41,25.39.51,2,2.13,3.72,3.07,5.28,8.25.42,16-4.76,17.9-12a35.39,35.39,0,0,1,4.58-11c2.81-4.24,3.4-9.2,4.16-14.06.38-2.47,1.09-4.6,3.48-6.31,4.8-.89,9.16-.16,12,5.6-1.12,9.4-3.09,18.64-11.14,25.89-5.4,4.86-8,11.83-8.67,19a27.56,27.56,0,0,1-6.52,15.58c-.67,3.87-1.3,7.43-1.88,10.78-6.22,1.2-8.6-.84-8.92-7.06,8.42-9.63,10.22-14.61,6.69-19.47-1.36,1.25-2.66,2.48-4,3.68-2.82,2.52-5.86,3.55-9.51,1.59-2.86-1.53-5.92-1.76-9.83-.48a55.93,55.93,0,0,0-2.58,7.67,9.1,9.1,0,0,1-3.87,6.3c-1,.7-2.31,1.64-2.63,2.73-1.59,5.47-5.63,9.28-9.09,13.69.44,3.66,2.32,7.38.2,11.1Z" transform="translate(-18.01 -14.6)"/><path class="cls-1" d="M699.42,190.05c-4.54-3.73-9.9-4.15-15.44-5.18-1,.81-2,1.78-3.19,2.67a20.85,20.85,0,0,1-4,2.85c-7.52,3.28-15.15,6.43-23.43,7.1-2.24.18-5.24-.13-6.74-1.49-2.94-2.66-6.34-4.29-9.74-6-5.28-2.67-6.69-7.48-7.15-12.73a45.14,45.14,0,0,1-.12-10.45c1.11-7.4-1.53-14.09-3.18-21a13.06,13.06,0,0,0-1.17-2.29c-1.18.87-2.22,1.51-3.1,2.31-1.58,1.47-3.07,3-4.61,4.55-.26.26-.74.44-.81.73-1.21,5.15-6.34,7.33-8.75,11.59-.68,1.2-2.11,1.95-3.08,3-.82.9-1.48,1.94-2.42,3.19L609,173.6c.23,5.73,0,6.16-5.53,8.64L596,178.62l-2.7-4.61-4.39,1.1c-.63,4.16-1.23,8.11-1.84,12.09-5.93,7.08-14.09,6.38-18.66-1.63a7.21,7.21,0,0,0-1-1.9c-5.23-4.61-7.32-11.34-11.49-16.66-.87-7-.71-13.85,1.79-20.61,2.57-6.92,3.08-14.19,2.55-21.56a13.45,13.45,0,0,0-2.91-8c-.21-9.63-.41-18.76-.61-27.89l-.82-.16L551,97.94a4.39,4.39,0,0,0,.06,2.27c2.08,4.94.66,9.91-.35,14.62a13.63,13.63,0,0,1-5.18,7.46c-4.63,3.3-6.31,8.06-7.51,13-1.09,4.48-2.76,8.13-6.6,10.91-4.44,3.21-5.8,8.25-6.84,13.34-.18.89-.3,1.79-.37,2.22-2.65,4.08-6.79,4.86-10.65,6.57-1.95,2.5-3.52,6.08-8.32,4.78-.68-5.2,3.77-6.79,7.24-9.74.75-6.38,6.31-10.3,10-15.45,1.92-2.71,3.7-5.39,4.52-8.66a9,9,0,0,1,1.49-3.46c3.09-3.81,6.22-7.6,9.55-11.2,2.87-3.1,4.9-6.46,4.36-10.8-.72-5.86.8-11.13,3.31-16.38A46,46,0,0,0,549.85,85c.51-3.28-.62-6.82-1-10.25-.2-1.59-1-3.39-.52-4.73a8.91,8.91,0,0,0-.4-7.79c1.78-3.31,4.59-2.46,6.92-1.9s5.13,1.15,6,4.17a13.92,13.92,0,0,1,.64,2.66,11.4,11.4,0,0,0,5.2,9c3.77,9.33,4,19,4.29,29.18l2.24,4.83c-.26,1.86-.58,4-.84,6.19s-.88,4.43-.6,6.55c1.13,8.45-1.4,16.27-3.75,24.13-1.62,5.44-1.87,10.8.66,16.07,1.81,3.77,3.44,7.64,5.38,11.34a28.7,28.7,0,0,0,3.52,4.37,15.36,15.36,0,0,0,8.36-6.93c3.2-5.71,6.63-11.3,9.63-17.12,1.48-2.87,2.09-6.18,3.3-9.21a30.68,30.68,0,0,1,3.38-6.78c2.53-3.49,4.57-7.18,4.68-11.48.15-5.88,3.07-10.78,5-16.06a30.89,30.89,0,0,0,1.75-4.59,19.85,19.85,0,0,1,5.87-10.84c.38-3.62.61-6.92-.6-10.42-1.5-4.35,0-7.19,4-9.77,1.23-.79,2.54-1.44,3.83-2.17,2.51.58,4,2.23,5.31,4.36,3.4,5.42,5.48,11,4.8,17.59-.38,3.64-.07,7.34-.07,11.54-2.89,3.18-2.3,6.9.5,10.76-2.36,7.72-.39,15.13,2.35,22.39,2,5.41,2.08,11.11,2.89,16.71a3.78,3.78,0,0,1,0,1.64c-1.88,6.18,0,12.31.19,19,1,1.05,2.21,2.4,3.5,3.69,5.26,5.29,9.46,6.1,16.27,3.25,2.34-1,4.8-1.67,7.08-2.74a20.92,20.92,0,0,0,3.41-2.48c-1.49-4.94-4.06-7.73-8.18-9.1a8.51,8.51,0,0,1-2.51-1c-3.13-2.37-6.74-3.55-10.44-4.57a8.24,8.24,0,0,1-1.69-.89,4.1,4.1,0,0,1,1-5.25c3.14-3.07,6.49-5.92,9.69-8.93s7.54-4.9,9.92-9.14c1.27-2.25,4-3.7,6-5.5,2.77-2.4,5.53-4.82,8.34-7.17a11.6,11.6,0,0,1,11.25-2.18l12.84,16.21c-3.34,7.43-2.41,15.47-6.6,22.27-2.06,3.35-3.81,6.59-7.59,8.19a7.42,7.42,0,0,0-1.42,1.14c1.24,2.86,3.48,3.63,6.17,3.76,7.11.35,13.17-2.13,18.62-6.57,6.12-5,12-10.21,16.63-16.65.85-1.17,1.73-2.34,2.48-3.58,2.35-3.89,4.7-7.78,6.93-11.74a22.15,22.15,0,0,0,1.28-4l-6.48.32L732.83,140c-4.59.69-8.21-.09-11.3-2.85-.74-3.44.49-6.11,3-8.56h6.55l3.73-3.17a6.42,6.42,0,0,1,1.16-.2,20.56,20.56,0,0,0,9-1.92,25.43,25.43,0,0,1,14.85-1.75c9.71,1.77,19.06,0,25.67-8.38,5.83-.39,8.42,3.09,10.71,8.08-1.44,1.41-2.69,3.47-4.5,4.22-4.86,2-6.42,6.24-7.83,10.59-.72,2.25-1,4.66-1.68,8.29a10.59,10.59,0,0,0-2.63,2c-1,1.23-2.15,2.81-2.2,4.27-.18,5.09-.37,10.2,2.9,14.76,1.44,2,2,4.65,2.77,6.48l6.67,7.19c6.13,1,9.84-3.93,14.53-5.9s8.3-6.47,12.94-10.32l2.08.18c2.11,2.44.73,4.51-4.72,8-3,4.78-5.77,9.24-8.49,13.77a22.42,22.42,0,0,1-10.68,9.49H790l-3.33-4.3A30,30,0,0,1,773,179.36c-2.13-3.12-4.56-6.56-5.07-10.12-.88-6.06-2.05-12.2-.87-18.52A89.6,89.6,0,0,1,770.56,137c.44-1.23.07-2.74.07-4.48l-16.71,3.54c-2.15,4.33-4.75,8.08-5.6,12.7-.26,1.42-1.65,2.76-2.79,3.87-5.24,5.13-10.17,10.51-14,16.82a11.65,11.65,0,0,1-6.89,5.12c-4.72,1.45-8.17,4.4-11.09,8.44C710.17,187.7,705.05,189.58,699.42,190.05Zm.53-44-8.51-11.83c-2.34,1.1-4.5,2-6.52,3.11-2.67,1.51-5.16,3.35-7.85,4.82-5.14,2.8-9.88,6-13.43,11.55,2.11,1.52,3.85,3.15,5.9,4.18,5.73,2.85,11.59,5.4,15.89,10.45.57.67,1.91.69,3.17,1.1C693.67,162.53,698.16,155.56,700,146.09ZM602.38,163c1.66-1,3-1.42,3.68-2.32q5.24-6.84,10.14-13.92c1-1.47,1.49-3.31,2.33-4.91a28.25,28.25,0,0,0,3.29-16.09c-.31-.43-.77-1-1.15-1.6-.46-.76-.86-1.57-1.3-2.38,1.16-5.47,3.13-10.79,1.73-16.49-3.32,5.7-4.2,12.14-6.45,18.1,1,1.62,1.75,3,2.62,4.51l-2,5.09c-2.35,1.59-4.85,3.31-5.76,5.65-2.71,6.93-4.82,14.1-7.09,21.21A12.76,12.76,0,0,0,602.38,163Z" transform="translate(-18.01 -14.6)"/><path class="cls-1" d="M292.87,64.3a27.39,27.39,0,0,1,8.72,12.06,119.4,119.4,0,0,1,7.56,36.26c.13,2.37.4,4.4,3.68,5.39a26.5,26.5,0,0,0,2.15-3.94c.67-1.87.85-3.92,1.49-5.8,1.69-5,3.52-9.93,5.22-14.67.25-3.52.49-6.93.81-11.41l-2.3-5.26h6.14c1,4.74,2.12,9.15,2.62,13.64a16.55,16.55,0,0,1-1.16,6.85c-1.62,4.81-3.61,9.49-5.26,14.28-.3.86.29,2,.52,3.38,1.88-.37,3.42-.77,5-1,5.14-.65,9.43.89,12.44,5.25,1.86,2.69,3.55,5.5,5.32,8.26a4.8,4.8,0,0,1,0,5.65c-2.38,3.67-4.48,7.54-7.11,11-1.51,2-3.8,3.38-5.79,5-1.24,1-2.58,1.88-4.39,3.17,5.82,6.63,13.93,5.3,20.68,7.4,4,4.09,7.87,8.22,11.94,12.14,3.54,3.42,8.18,3.82,12.79,3.92,2.38.05,4.82-.43,6.8,1.4a21.93,21.93,0,0,1,1.73,2.08c-.87,1.13-1.47,2.73-2.57,3.22-7.49,3.28-15.08,4.39-22.4-.49-2.26-1.52-4.25-3.44-6.37-5.18-1.13-.93-2.23-1.87-3.38-2.77-2.3-1.79-4.6-3.58-6.94-5.33-1.58-1.18-3.22-2.28-4.43-3.13-5.55.11-5.55.11-8.44,2,1.57,3.38,3.15,6.81,4.65,10.05a12.17,12.17,0,0,1-8.8,8.92c-3.49-2.73-6.65-5.59-6.53-10.63a7.78,7.78,0,0,0-.66-2.62c-1.83-5.13-3.69-10.24-5.75-15.93l-7.08-4.15,4.34-7c-1.08-2.58-2.32-5.54-4-9.51V124.12l-3.5-6.09c0-2.59,0-6.07,0-9.55-.08-8.94-1.89-17.3-7.19-24.83-2.58-3.66-5.33-7.48-4.86-12.53C288.9,67.46,288.79,67.29,292.87,64.3ZM318,147.42c2.84-2.18,5.39-3.7,7.38-5.75,3.5-3.61,7.47-7.19,5.94-13-3.68-4.63-8.13-6.85-13.49-5.94-4,2-4.59,5.47-5.33,9.14C314.82,136.55,314.59,142.3,318,147.42Z" transform="translate(-18.01 -14.6)"/><path class="cls-1" d="M827.07,163.12c-2.36-1.29-5.56-.15-6.4-4.47,1.5-3.83,3.55-8.47,5.12-13.26a71.26,71.26,0,0,0,2.32-10.68c.5-3,1.52-5.6,4.27-7.34,4.72.51,6.48,4.28,8.87,8.07,0,6.2.08,12.8,0,19.41,0,1.79-.9,3.54-1,5.34-.52,6.45,1.05,12.61,2.69,19.18,6.59-1.79,12.87-3.31,17.81-8.45l2.85,3a8.31,8.31,0,0,1-1.24,2.09,22,22,0,0,0-5.9,9.06c-2,5.12-6.28,7-11.31,7.07A11.48,11.48,0,0,1,834,185.38a7.75,7.75,0,0,0-1.25-2.39c-3.66-3.21-4.12-7.56-4.55-12C827.93,168.3,827.44,165.62,827.07,163.12Z" transform="translate(-18.01 -14.6)"/><path class="cls-1" d="M463.07,162.88c2.93,2.59,2.93,2.59,4.77,8.06l13,10c6.36,2.87,11.7-.32,16.81-4,2-1.44,3.85-2.65,6.75-1.94a11.15,11.15,0,0,1-.05,3.23c-.84,2.59-2,5.06-2.85,7.65a6.94,6.94,0,0,1-4.8,4.86c-10.15,3-19.77,2.6-28.27-4.7a61.67,61.67,0,0,0-6.21-4.41,17,17,0,0,1-6.57-9.18,7.67,7.67,0,0,1,1.27-7.25A5.54,5.54,0,0,1,463.07,162.88Z" transform="translate(-18.01 -14.6)"/><path class="cls-1" d="M127,93.86c-2.85,4-2.85,4-7.3,4.27a39.3,39.3,0,0,0-15.67-14c-1-.5-2.5-.07-4-.07L97.46,87.8c-3.29,1.57-5.4-.76-7.91-1.59a74.47,74.47,0,0,0-7.33-1.67c1.47-4.14,1.47-4.14,5.79-6.3,7.26-1.75,13.54-.36,19.17,1.89,6.29,2.5,11.92,6.69,17.73,10.32C125.86,91.05,126.24,92.56,127,93.86Z" transform="translate(-18.01 -14.6)"/><path class="cls-1" d="M425.86,161.48c-3.48.56-6.59,3.81-10.09.3v-3.61l8-1.58,5.4-3c3.8,2,5.06,5.47,6.88,8.56L427.57,173l-2.47.18c-1.62-2.43-.13-4.17.72-5.86A6.66,6.66,0,0,0,425.86,161.48Z" transform="translate(-18.01 -14.6)"/><path class="cls-1" d="M398.4,171.24c-7.67,6.49-9.1,7-15.47,5.95-.16-.89-.33-1.9-.59-3.34,1.45-.79,2.76-1.86,4.25-2.25,8.5-2.22,15.45-8.88,24.82-8.94l2,2.87A20.89,20.89,0,0,1,398.4,171.24Z" transform="translate(-18.01 -14.6)"/><path class="cls-1" d="M850.27,109.42,846.09,114l-8.8-1.38c-1.63-2.43-3-4.52-4.4-6.53.76-2.45,2.69-2.84,4.69-3.35,3.26-.83,6.42-1.38,10,.7C848.27,105,849.15,106.93,850.27,109.42Z" transform="translate(-18.01 -14.6)"/><path class="cls-1" d="M230.76,115.16l-9.37-7.11c-.19-3.87,1.64-6.18,4.67-6.92,4.14-1,7.41,1,9.87,4.32C236.48,110.83,236,111.73,230.76,115.16Z" transform="translate(-18.01 -14.6)"/><path class="cls-1" d="M1049.38,114.42c.71,5.7,1.13,10-3,14.17l-3.85-4.22v-6Z" transform="translate(-18.01 -14.6)"/><path class="cls-1" d="M1083.55,173.11c-2.4,3.41-4.55,2.51-7.07,2C1078.07,171.91,1080.3,172.64,1083.55,173.11Z" transform="translate(-18.01 -14.6)"/><path class="cls-1" d="M77.05,86.78l.35,3.34-3,.4c-.35-.4-.74-.64-.78-.92C73.3,87.18,74.56,86.46,77.05,86.78Z" transform="translate(-18.01 -14.6)"/><path class="cls-1" d="M421.94,177.41a8.62,8.62,0,0,1-.73,2.51,18.39,18.39,0,0,1-2.27,2.19C417.39,177.85,417.43,177.77,421.94,177.41Z" transform="translate(-18.01 -14.6)"/></svg>