<svg id="Layer_1" data-name="Layer 1" xmlns="http://www.w3.org/2000/svg" viewBox="0 0 1228 244"><defs><style>.cls-1{fill:#d8d8d8;}</style></defs><title>ErikMerisalu-Website-LandingPage-Title</title><path class="cls-1" d="M1130.51,3.89c.64,1.09,1.27,2.19,2.08,3.58v5.62l4.2,4.91v8.53c-6.13,5.61-8.48,13.93-12.77,21.08a13.18,13.18,0,0,0-1.18,4.78,91.87,91.87,0,0,1-7.93,25.46,58.32,58.32,0,0,0-2.49,7.9c-2.55,3.15-5,5.9-7.1,8.85s-3.94,6.06-3.81,10.05a16.19,16.19,0,0,1-1.38,6.37c-1.38,3.44-.63,6.49,1.14,9.4a75.45,75.45,0,0,0,5.49,8.19c5.1,6.4,6.76,14,8.14,21.77a89.28,89.28,0,0,0,2.38,10.66c.5,1.6,2,2.91,3.35,4.9,6.72-5.15,15.57-5.6,20.44-13.23l2.6,2a13.64,13.64,0,0,1-1.2,2.45c-2.36,3-4.52,6-4.88,10.15-.24,2.76-2.25,5-4.8,6.36-8.12,4.33-17.9,3-22.42-6.25-3.1-6.37-6.81-12.4-8.44-19.44-.73-3.14-2.45-6-3.72-9-1.34-3.17-2.53-6.41-4.06-9.47-.76-1.51-2.16-2.69-3.3-4.07-6.59,3.68-7.65,9.56-8.14,16.37-9.52,8.42-18,18.34-26.2,28.48,1,2.25,2.68,2.18,4.28,1.59,2-.75,4-1.83,6-2.68s4.15-2.43,7.17-1.38c-.42.95-.57,2.15-1.24,2.63a64,64,0,0,1-7.37,4.61,8.33,8.33,0,0,1-7.92,0c-3.84-1.92-7.86-1.73-11.83-.83a26.3,26.3,0,0,1-15.65-.85,13.36,13.36,0,0,0-2-.76c-6.59-1.29-12-4.37-15.36-10.37-.16-.28-.61-.39-1.5-.93l-6.91,3.28c-.8,2-1.54,3.87-2.28,5.72l.71.69-5,3.31c.17,3.31.3,5.67.44,8.35L994.09,187c-5.21-2.91-7.32-7.38-8.15-12.92-7.82-2.24-15.66-4.58-22-10.55l-6.26,8.75-6.9.48c-3.62,3-7.87,6.15-11.74,9.75-3.29,3.08-6.79,4.84-11.35,4.42-2.74-.26-5.5-.18-8.25-.35-5.7-.37-10.42-2.83-14.84-6.4-2.79-2.25-6.4-3.46-7.93-7.13-1.89-4.53-4.35-8.92-2.93-14.3l3.87-2.74v-3.8c4.67-.17,4.67-.17,14.83,5.45a36,36,0,0,1,2.61-5.62,50.44,50.44,0,0,1,4.84-5.26c-.28-5.25.86-10.91-.81-16.52a8.29,8.29,0,0,1-.12-2.73c.47-7.54-4-11.56-10.45-15-7.71,8.07-13.33,17.55-20.86,25.69v9.57c-4.74,2.88-9.31,5.84-14.06,8.48-3.14,1.74-6.54,1.59-10.54.13,3.33-3.89,7.6-5.64,11.19-8.89.2-1.07.45-2.48.78-4.28,10.58-9.11,20.82-18.93,25.42-32.07,2.32-3.59,4-6.59,6.1-9.33,1.93-2.56,4.22-4.84,7-8,.66,2.64,1.41,4.47,1.51,6.33a8.15,8.15,0,0,0,3.42,6.46,58.6,58.6,0,0,1,9.34,9.15,23.83,23.83,0,0,1,3.69,8.42,46.42,46.42,0,0,0,10.12,19.5c-.35,4.35-.63,8.85-3.21,12.87a10.13,10.13,0,0,0-1.29,3c-1.27,5.23-5,7.9-9.74,9.5-2.85,1-5.53,2-6.45,5.29a10.44,10.44,0,0,0-.08,1.6c6.3,2.33,12.51,3,18.58-1.06,1.52-1,3-2.1,4.59-3,5.48-3,8.86-7.66,11.62-13.28a70.73,70.73,0,0,1,10.43-15.84c5.09-5.7,11.1-10.62,17-15.56a60.5,60.5,0,0,1,10.45-7,17.94,17.94,0,0,1,6.89-1.48c5.62-.43,11.26-.61,16.92-.89l6.66-7.55.65.5c.53-2.32,1.05-4.63,1.62-7.1,1.54-2.19,3.25-4.34,6.92-3.24a17,17,0,0,1,4.93,9.19c.76,4.46,2.21,8.79,3.34,13.1l-18.16,27c.9,4.46,2.66,7.58,6.08,10,2.35,1.65,4.1,4.17,5.87,6l5.37,1.63c5.38-2.3,10.56-5.61,16.44-5.57.77-.64,1.36-.91,1.58-1.36,2.73-5.63,8.05-8.84,12.2-13.13,2.1-2.19,4-4.39,4.22-7.48.28-3.6,2.46-6,4.71-8.45a56.52,56.52,0,0,0,3.83-4.62c3.78-5.13,4.45-10.07-.08-15.42-1.61-1.9-2.25-5-2.44-7.65-.6-8.23-.92-16.49-1-24.74a20,20,0,0,1,5.08-13.5c2.44-2.89,4.11-6.43,6.16-9.65,3.61-5.67,5.62-12.28,10.66-17.14,1.9-1.85,3.15-4.47,4.38-6.9,3.35-6.67,6.78-13.32,9.68-20.19,1.33-3.16,3.65-5.26,5.72-7.68Zm-34.17,96.35c1.56-2.15,3.13-4.13,4.51-6.24,4.24-6.44,7.11-13.56,10.09-20.64,1.62-3.86,3.81-7.51,5.12-11.45,1.26-3.78,1.7-7.83,2.52-11.75A28.84,28.84,0,0,1,1126.89,35c3.54-3.33,4.91-7.53,7.27-11.23a13.68,13.68,0,0,0-3.86-7.21c-2.35,2.37-2.4,2.48-3.3,5a94.17,94.17,0,0,1-3.82,10.23c-1.69,3.4-3.39,7.17-6.13,9.6-6.26,5.54-13.26,10.23-19.76,15.52-5.27,4.29-9.35,9.26-7.76,16.9,1.3,6.23,2.16,12.56,3.43,18.79C1093.48,95.14,1093.29,98.11,1096.34,100.24Zm-87.2,41.34,3.12-10.06c-3.66-1.4-3.66-1.4-7.88-.29a36.21,36.21,0,0,0-2.88,4.28,9.69,9.69,0,0,1-6.17,5c-8.6,2.64-15.31,8.21-22.13,14.06l-5.27.95c.57,3.91,3.35,5.45,5.73,7.62l6.47-1.26c3,1.07,6.06,3.08,9.11,3,3.25-.06,6.47-2.06,9.7-3.24a10.22,10.22,0,0,0,2-.93c3.34-2.15,7.08-3.75,9-7.69,2.87-5.88,6-11.63,8.94-17.49.33-.65,0-1.64-.09-3C1013.82,134,1015,140.61,1009.14,141.58Zm-38,2.85c4,1.67,6.07-.52,7.91-2.66,1.57-1.82,4.94-3,2.91-7C978.28,137.82,974,139.77,971.12,144.43Zm-56,15c-1,3.23-2.27,5.75-1.79,8.66,2.76.76,3.91-1,5.16-2.38C918.43,162.08,918.43,162.08,915.17,159.44ZM933.11,143c-2,1.7-1.14,2.9-.43,4.19.94,1.71,1.85,3.35,4.52,3.38C937.38,147,936.13,144.67,933.11,143Zm91.95-27.69c-2.29,2.29-2.4,3.9-.37,5.89C1026.34,119.3,1026.09,117.66,1025.06,115.3Zm-94.34,40.81c-2.3-.54-3.26-.09-1.77,2.11Z"/><path class="cls-1" d="M18,154a11.93,11.93,0,0,1,9.5-4.63,19.34,19.34,0,0,0,4.88-.78c2.84-.78,5.46-1.82,7.1-4.68,1.06-1.87,2.8-3.35,4.33-5.12L47.63,140c7.86-4.36,15.81-8.75,23.7-13.21.51-.28.66-1.19,1.15-2.14-6.06-1.64-11.86-3.07-17.58-4.79s-10.68-5.34-15.43-9.1S30,103.27,26.93,98.06c1.14-2.67,3.31-3.11,5.4-3.78,6.06-1.94,11.4-5,15.51-10.5l.31-7c4.09-5.73,8.23-11.5,16.68-12.35,2.72,4.58,4.47,9.16,3.51,14.47-.64.61-1.08,1.37-1.71,1.58C58.11,83.36,52,90.09,44.27,94.23c-2.49,1.33-3.77,3.39-3.11,6.13.39.51.54,1,.83,1.07,5.23,2.21,9.76,5.58,14.62,8.39,6.93,4,14.81,6.11,22.73,7.31,3.16.47,6.54-.57,9.82-.92l9.37-1,3.91,3.68c.88,3.4-.21,5.51-2.89,7.25a49.6,49.6,0,0,1-19.62,8c-10.19,1.56-19.57,5.3-28.64,10.34-1.24,3.93.81,7.37,1.8,11,1.1,4.1,3,7.27,7.12,9.06,2.11.92,3.85,2.73,5.71,4.18,6.56,5.14,14.22,5.48,22,4.81,7.34-.64,14.24-3.16,20.83-6.31,3.72-1.78,5.57-5.21,5.7-9.39.07-2.2,0-4.4,0-6.94,1.64-3.53,5-5.76,8.59-8.13l-.75-3.7c-7.76-.13-14.25,6.27-22.6,3,.55-1.14.77-2.57,1.59-3.11a20.6,20.6,0,0,1,5.42-2.4c4.54-1.35,9.19-2.33,13.69-3.79a14.29,14.29,0,0,1,9.67-.17c5.45,2,10.77,1.48,16.12-.27,5.54-1.81,11-3.92,16.68-5.21,4.9-1.12,9.95-2.49,15.68-1.14.52,4,1,8,1.54,11.91s1.3,7.95,1.74,11.94c.51,4.58,3.32,8.07,5.51,11.78,2.28,3.87,6.33,4.37,10.24,3.3,6.71-1.83,13.26-4,17.93-9.87,1.74-2.19,4.56-3.53,6.84-5.31,1.43-1.12,2.78-2.34,3.91-3.3,1.54-3.82,1.49-7.13-.81-10.23a5.69,5.69,0,0,1-.57-1c-2.94-6.23-1.8-9,4.8-11.8.34.13.87.17,1,.41,2.43,5.27,6.76,9.38,8.86,14.88,1.36,3.55,3.24,6.9,6.47,9.3,2.18,1.63,4.43,2.61,7.13,1.9,3-.79,5.92-1.68,8.87-2.55,1-.29,1.95-.66,3.66-1.25a41.17,41.17,0,0,1-6.41,12.57c-1.13,1.53-3.65,2.37-5.69,2.8-2.27.47-4.72.11-7,.11l-16.13-11.58c-4.64,2.89-6.37,8.29-9.63,13-1.42.51-3.09,1.49-4.83,1.67-6.22.65-11.39,3.66-16.58,6.75a27.51,27.51,0,0,1-6.32,3.17c-5,1.4-10.26-.78-13.19-5.7q-6.57-11-12.42-22.45c-1.12-2.17-1.18-4.93-1.51-7.45a32,32,0,0,1,0-4.46,3.78,3.78,0,0,0-4.77-1.47c-3.8,1.24-7.55,2.66-11.33,3.95-4.48,1.54-8.89,3.48-13.49,4.38-4.1.8-7.35,2.58-9.6,5.78-3.3,4.68-7.85,9-5.83,16.26.19.29.74,1,1.2,1.81,2.65,4.54,2.24,6.91-2.17,9.58-4.84,2.94-9.68,5.78-15.93,3.52-1.94-.71-4.66.19-6.86.87-4.87,1.48-9.47,4.1-14.79,3.56a81.58,81.58,0,0,1-9.69-1.49c-7.47-1.66-14.42-4.93-21.6-7.4-11.87-4.08-22.3-10.54-33-16.64Zm23.58-3.51c-3.17.39-4.46,1.8-3.52,5,2.12,1.59,4.1,3.82,7.37,2.72C45.2,154,45.2,154,41.59,150.48Z"/><path class="cls-1" d="M1134.93,214.69l-2.91-4.4v-4.67l9.65-13.5c2.6-6.22,5.54-14.53,13.54-19.73-.44-1.48-.44-3-1.2-3.74-2.54-2.47-3.28-5.62-4.11-8.82-1-3.69-2.24-7.32-3-11.06a53.29,53.29,0,0,1-1-10.31c0-3.47.73-6.92,1.06-10.39.64-6.74,4.21-11.43,10.33-15L1161,117c.2,3.76.4,6.87.51,10a10.37,10.37,0,0,1-.19,3.83c-3.35,9.09,1.28,17.09,3.41,25.39.51,2,2.13,3.71,3.07,5.28,8.25.42,16-4.76,17.9-12.05a35.39,35.39,0,0,1,4.58-11c2.81-4.24,3.4-9.2,4.16-14.06.38-2.47,1.09-4.6,3.48-6.31,4.8-.89,9.16-.16,12,5.6-1.12,9.4-3.09,18.64-11.14,25.89-5.4,4.86-8,11.83-8.67,19.05a27.56,27.56,0,0,1-6.52,15.58c-.67,3.87-1.3,7.43-1.88,10.78-6.22,1.2-8.6-.84-8.92-7.06,8.42-9.63,10.22-14.61,6.69-19.48-1.36,1.25-2.66,2.49-4,3.68-2.82,2.53-5.86,3.56-9.51,1.6-2.86-1.54-5.92-1.76-9.83-.48a55.93,55.93,0,0,0-2.58,7.67,9.1,9.1,0,0,1-3.87,6.3c-1,.7-2.31,1.64-2.63,2.72-1.59,5.48-5.63,9.29-9.09,13.7.44,3.66,2.32,7.38.2,11.1Z"/><path class="cls-1" d="M699.42,179.34c-4.54-3.73-9.9-4.16-15.44-5.18-1,.81-2,1.78-3.19,2.66a20.47,20.47,0,0,1-4,2.86c-7.52,3.28-15.15,6.43-23.43,7.1-2.24.18-5.24-.13-6.74-1.49-2.94-2.66-6.34-4.29-9.74-6-5.28-2.67-6.69-7.48-7.15-12.73a45.14,45.14,0,0,1-.12-10.45c1.11-7.4-1.53-14.09-3.18-21a13.06,13.06,0,0,0-1.17-2.29c-1.18.87-2.22,1.51-3.1,2.31-1.58,1.47-3.07,3-4.61,4.55-.26.26-.74.44-.81.73-1.21,5.15-6.34,7.33-8.75,11.59-.68,1.2-2.11,1.95-3.08,3-.82.89-1.48,1.94-2.42,3.19l6.55,4.69c.23,5.73,0,6.16-5.53,8.64L596,167.91l-2.7-4.61-4.39,1.1c-.63,4.16-1.23,8.11-1.84,12.09-5.93,7.08-14.09,6.38-18.66-1.63a7.21,7.21,0,0,0-1-1.9c-5.23-4.61-7.32-11.34-11.49-16.66-.87-7-.71-13.85,1.79-20.61,2.57-6.92,3.08-14.19,2.55-21.56a13.51,13.51,0,0,0-2.91-8.06c-.21-9.62-.41-18.75-.61-27.89l-.82-.15L551,87.23A4.39,4.39,0,0,0,551,89.5c2.08,4.94.66,9.9-.35,14.62a13.63,13.63,0,0,1-5.18,7.46c-4.63,3.3-6.31,8.06-7.51,13-1.09,4.49-2.76,8.13-6.6,10.91-4.44,3.21-5.8,8.26-6.84,13.35-.18.89-.3,1.79-.37,2.22-2.65,4.08-6.79,4.86-10.65,6.57-1.95,2.5-3.52,6.08-8.32,4.78-.68-5.21,3.77-6.79,7.24-9.74.75-6.38,6.31-10.3,10-15.45,1.92-2.71,3.7-5.39,4.52-8.66a9.15,9.15,0,0,1,1.49-3.47c3.09-3.81,6.22-7.59,9.55-11.19,2.87-3.1,4.9-6.46,4.36-10.8-.72-5.86.8-11.13,3.31-16.39a45.83,45.83,0,0,0,4.17-12.37c.51-3.28-.62-6.82-1-10.25-.2-1.59-1-3.39-.52-4.73a8.94,8.94,0,0,0-.4-7.8c1.78-3.3,4.59-2.45,6.92-1.89s5.13,1.15,6,4.17a13.92,13.92,0,0,1,.64,2.66,11.4,11.4,0,0,0,5.2,9c3.77,9.33,4,19,4.29,29.18l2.24,4.83c-.26,1.86-.58,4-.84,6.18s-.88,4.44-.6,6.56c1.13,8.45-1.4,16.27-3.75,24.13-1.62,5.44-1.87,10.8.66,16.07,1.81,3.77,3.44,7.64,5.38,11.34.82,1.56,2.23,2.8,3.52,4.37a15.36,15.36,0,0,0,8.36-6.93c3.2-5.71,6.63-11.3,9.63-17.12,1.48-2.87,2.09-6.18,3.3-9.21a30.68,30.68,0,0,1,3.38-6.78c2.53-3.49,4.57-7.18,4.68-11.48.15-5.88,3.07-10.78,5-16.06A30.89,30.89,0,0,0,613.57,96a19.85,19.85,0,0,1,5.87-10.84c.38-3.62.61-6.92-.6-10.42-1.5-4.35,0-7.19,4-9.77,1.23-.79,2.54-1.44,3.83-2.17,2.51.58,4,2.23,5.31,4.36,3.4,5.42,5.48,11,4.8,17.59-.38,3.64-.07,7.34-.07,11.54-2.89,3.18-2.3,6.9.5,10.76-2.36,7.72-.39,15.13,2.35,22.39,2,5.41,2.08,11.11,2.89,16.71a3.78,3.78,0,0,1,0,1.64c-1.88,6.18,0,12.31.19,19,1,1.05,2.21,2.4,3.5,3.69,5.26,5.29,9.46,6.1,16.27,3.25,2.34-1,4.8-1.68,7.08-2.75a20.31,20.31,0,0,0,3.41-2.47c-1.49-4.94-4.06-7.73-8.18-9.1a8.51,8.51,0,0,1-2.51-1c-3.13-2.37-6.74-3.56-10.44-4.57a8.24,8.24,0,0,1-1.69-.89,4.1,4.1,0,0,1,1-5.25c3.14-3.07,6.49-5.92,9.69-8.93s7.54-4.9,9.92-9.14c1.27-2.25,4-3.7,6-5.5,2.77-2.4,5.53-4.82,8.34-7.17a11.6,11.6,0,0,1,11.25-2.18L709.16,131c-3.34,7.43-2.41,15.46-6.6,22.27-2.06,3.35-3.81,6.59-7.59,8.19a7.42,7.42,0,0,0-1.42,1.14c1.24,2.86,3.48,3.63,6.17,3.76,7.11.35,13.17-2.13,18.62-6.57,6.12-5,12-10.21,16.63-16.65.85-1.18,1.73-2.34,2.48-3.58,2.35-3.89,4.7-7.78,6.93-11.74a22.15,22.15,0,0,0,1.28-4l-6.48.32-6.35,5.19c-4.59.68-8.21-.09-11.3-2.85-.74-3.45.49-6.11,3-8.56h6.55l3.73-3.17a5.65,5.65,0,0,1,1.16-.2,20.7,20.7,0,0,0,9-1.92,25.43,25.43,0,0,1,14.85-1.75c9.71,1.77,19.06,0,25.67-8.39,5.83-.38,8.42,3.1,10.71,8.09-1.44,1.4-2.69,3.47-4.5,4.22-4.86,2-6.42,6.24-7.83,10.59-.72,2.25-1,4.66-1.68,8.29a10.59,10.59,0,0,0-2.63,2c-1,1.23-2.15,2.81-2.2,4.27-.18,5.09-.37,10.2,2.9,14.76,1.44,2,2,4.65,2.77,6.48l6.67,7.18c6.13,1,9.84-3.92,14.53-5.89s8.3-6.47,12.94-10.32l2.08.18c2.11,2.44.73,4.51-4.72,8-3,4.78-5.77,9.24-8.49,13.76a22.37,22.37,0,0,1-10.68,9.49H790l-3.33-4.29A30,30,0,0,1,773,168.65c-2.13-3.12-4.56-6.56-5.07-10.12-.88-6.06-2.05-12.2-.87-18.52a89.6,89.6,0,0,1,3.46-13.73c.44-1.23.07-2.74.07-4.48l-16.71,3.54c-2.15,4.33-4.75,8.08-5.6,12.7-.26,1.42-1.65,2.76-2.79,3.87-5.24,5.13-10.17,10.51-14,16.82a11.65,11.65,0,0,1-6.89,5.12c-4.72,1.45-8.17,4.4-11.09,8.44C710.17,177,705.05,178.87,699.42,179.34Zm.53-44-8.51-11.84c-2.34,1.11-4.5,2-6.52,3.12-2.67,1.51-5.16,3.35-7.85,4.82-5.14,2.8-9.88,6-13.43,11.55,2.11,1.52,3.85,3.15,5.9,4.18,5.73,2.85,11.59,5.4,15.89,10.45.57.67,1.91.69,3.17,1.1C693.67,151.82,698.16,144.85,700,135.38Zm-97.57,16.93c1.66-1,3-1.42,3.68-2.32q5.24-6.84,10.14-13.92c1-1.47,1.49-3.31,2.33-4.91a28.25,28.25,0,0,0,3.29-16.09c-.31-.43-.77-1-1.15-1.6-.46-.76-.86-1.57-1.3-2.38,1.16-5.47,3.13-10.79,1.73-16.49-3.32,5.7-4.2,12.14-6.45,18.1,1,1.62,1.75,3,2.62,4.5l-2,5.09c-2.35,1.6-4.85,3.32-5.76,5.66-2.71,6.93-4.82,14.1-7.09,21.2A12.87,12.87,0,0,0,602.38,152.31Z"/><path class="cls-1" d="M292.87,53.59a27.39,27.39,0,0,1,8.72,12.06,119.4,119.4,0,0,1,7.56,36.26c.13,2.36.4,4.4,3.68,5.39a26.12,26.12,0,0,0,2.15-4c.67-1.87.85-3.91,1.49-5.79,1.69-5,3.52-9.93,5.22-14.67.25-3.52.49-6.93.81-11.42l-2.3-5.25h6.14c1,4.74,2.12,9.15,2.62,13.64a16.55,16.55,0,0,1-1.16,6.85c-1.62,4.81-3.61,9.49-5.26,14.28-.3.86.29,2,.52,3.38,1.88-.37,3.42-.77,5-1,5.14-.65,9.43.89,12.44,5.25,1.86,2.69,3.55,5.5,5.32,8.26a4.8,4.8,0,0,1,0,5.65c-2.38,3.67-4.48,7.53-7.11,11-1.51,2-3.8,3.38-5.79,5-1.24,1-2.58,1.88-4.39,3.17,5.82,6.62,13.93,5.3,20.68,7.4,4,4.09,7.87,8.22,11.94,12.14,3.54,3.42,8.18,3.82,12.79,3.91,2.38.05,4.82-.42,6.8,1.4a23.79,23.79,0,0,1,1.73,2.09c-.87,1.13-1.47,2.73-2.57,3.21-7.49,3.29-15.08,4.4-22.4-.48-2.26-1.52-4.25-3.45-6.37-5.18-1.13-.93-2.23-1.87-3.38-2.77-2.3-1.79-4.6-3.59-6.94-5.33-1.58-1.18-3.22-2.28-4.43-3.13-5.55.11-5.55.11-8.44,2l4.65,10a12.17,12.17,0,0,1-8.8,8.93c-3.49-2.73-6.65-5.59-6.53-10.63a7.78,7.78,0,0,0-.66-2.62c-1.83-5.13-3.69-10.24-5.75-15.93l-7.08-4.15c1.53-2.47,2.74-4.42,4.34-7-1.08-2.57-2.32-5.53-4-9.5V113.41l-3.5-6.09c0-2.59,0-6.07,0-9.55-.08-8.94-1.89-17.3-7.19-24.83-2.58-3.66-5.33-7.48-4.86-12.53C288.9,56.75,288.79,56.58,292.87,53.59ZM318,136.71c2.84-2.18,5.39-3.7,7.38-5.75,3.5-3.61,7.47-7.19,5.94-13-3.68-4.63-8.13-6.85-13.49-5.94-4,2-4.59,5.47-5.33,9.13C314.82,125.84,314.59,131.59,318,136.71Z"/><path class="cls-1" d="M827.07,152.4c-2.36-1.29-5.56-.14-6.4-4.46,1.5-3.83,3.55-8.47,5.12-13.26A71.26,71.26,0,0,0,828.11,124c.5-3,1.52-5.6,4.27-7.35,4.72.52,6.48,4.29,8.87,8.08,0,6.19.08,12.8,0,19.41,0,1.78-.9,3.54-1,5.34-.52,6.45,1.05,12.61,2.69,19.18,6.59-1.79,12.87-3.31,17.81-8.45l2.85,3a8.31,8.31,0,0,1-1.24,2.09,22,22,0,0,0-5.9,9.06c-2,5.12-6.28,7-11.31,7.07A11.48,11.48,0,0,1,834,174.67a7.64,7.64,0,0,0-1.25-2.39c-3.66-3.21-4.12-7.56-4.55-12C827.93,157.59,827.44,154.91,827.07,152.4Z"/><path class="cls-1" d="M463.07,152.17c2.93,2.59,2.93,2.59,4.77,8.06l13,10c6.36,2.87,11.7-.32,16.81-4,2-1.44,3.85-2.65,6.75-1.94a11.15,11.15,0,0,1-.05,3.23c-.84,2.58-2,5.06-2.85,7.65a6.94,6.94,0,0,1-4.8,4.86c-10.15,3-19.77,2.6-28.27-4.7a61.67,61.67,0,0,0-6.21-4.41,17,17,0,0,1-6.57-9.19,7.65,7.65,0,0,1,1.27-7.24A5.54,5.54,0,0,1,463.07,152.17Z"/><path class="cls-1" d="M127,83.15c-2.85,4-2.85,4-7.3,4.27a39.3,39.3,0,0,0-15.67-14c-1-.5-2.5-.07-4-.07l-2.59,3.72c-3.29,1.58-5.4-.75-7.91-1.58a74.47,74.47,0,0,0-7.33-1.67c1.47-4.14,1.47-4.14,5.79-6.3,7.26-1.75,13.54-.36,19.17,1.88,6.29,2.51,11.92,6.7,17.73,10.33C125.86,80.34,126.24,81.85,127,83.15Z"/><path class="cls-1" d="M425.86,150.77c-3.48.56-6.59,3.81-10.09.3v-3.61l8-1.58,5.4-3c3.8,2,5.06,5.47,6.88,8.56l-8.51,10.86-2.47.18c-1.62-2.43-.13-4.17.72-5.86A6.66,6.66,0,0,0,425.86,150.77Z"/><path class="cls-1" d="M398.4,160.53c-7.67,6.49-9.1,7.05-15.47,5.95-.16-.89-.33-1.9-.59-3.34,1.45-.79,2.76-1.86,4.25-2.25,8.5-2.22,15.45-8.88,24.82-8.94l2,2.87A20.89,20.89,0,0,1,398.4,160.53Z"/><path class="cls-1" d="M850.27,98.71l-4.18,4.54-8.8-1.38c-1.63-2.43-3-4.52-4.4-6.53.76-2.46,2.69-2.84,4.69-3.36,3.26-.82,6.42-1.37,10,.7C848.27,94.26,849.15,96.22,850.27,98.71Z"/><path class="cls-1" d="M230.76,104.45l-9.37-7.11c-.19-3.87,1.64-6.18,4.67-6.92,4.14-1,7.41,1,9.87,4.32C236.48,100.12,236,101,230.76,104.45Z"/><path class="cls-1" d="M1049.38,103.71c.71,5.69,1.13,10.05-3,14.17l-3.85-4.23v-6Z"/><path class="cls-1" d="M1083.55,162.4c-2.4,3.41-4.55,2.51-7.07,2C1078.07,161.2,1080.3,161.93,1083.55,162.4Z"/><path class="cls-1" d="M77.05,76.07l.35,3.33-3,.41c-.35-.4-.74-.64-.78-.92C73.3,76.46,74.56,75.75,77.05,76.07Z"/><path class="cls-1" d="M421.94,166.7a8.62,8.62,0,0,1-.73,2.51,18.39,18.39,0,0,1-2.27,2.19C417.39,167.14,417.43,167.06,421.94,166.7Z"/><path class="cls-1" d="M519.24,234.93a11.06,11.06,0,0,1-5-.79,2.46,2.46,0,0,1-1.48-2,5,5,0,0,1,.52-2.41,1.53,1.53,0,0,1,1.36-1,2.33,2.33,0,0,1,1.44.67c.52.44,1.07.93,1.63,1.46s1.18,1,1.76,1.43a2.62,2.62,0,0,0,1.61.7,2,2,0,0,0,1.54-.92,12.75,12.75,0,0,0,1.46-2.9c.51-1.32,1.08-3,1.71-5.15l8.12-26.3a2.81,2.81,0,0,0,0-2.28,4,4,0,0,0-2.23-1.09,1,1,0,0,1-.64-.37.66.66,0,0,1,0-.67.71.71,0,0,1,.42-.54,1.4,1.4,0,0,1,.72-.2c.75,0,1.55,0,2.37,0s1.65.07,2.46.12,1.54.07,2.2.07,1.36,0,2.2,0l2.55-.11c.86,0,1.66,0,2.38,0,.56,0,.78.23.65.69a1,1,0,0,1-.45.69,4,4,0,0,1-.89.35,12.81,12.81,0,0,0-2.23.79,3.28,3.28,0,0,0-1.21,1,5.5,5.5,0,0,0-.72,1.64l-7.38,23.87a19.54,19.54,0,0,1-1.09,2.9,18.56,18.56,0,0,1-3.25,4.78,22.63,22.63,0,0,1-2,1.93,17.49,17.49,0,0,1-4.07,2.66A10.62,10.62,0,0,1,519.24,234.93Z"/><path class="cls-1" d="M549.16,225.77a5.93,5.93,0,0,1-2.83-.82,8,8,0,0,1-2.52-2.18,4.86,4.86,0,0,1-1-3.05,16.23,16.23,0,0,1,1.14-6,18.83,18.83,0,0,1,3-5.17,15.18,15.18,0,0,1,4.28-3.64,9.78,9.78,0,0,1,4.88-1.37,6.44,6.44,0,0,1,4.16,1.09,3.29,3.29,0,0,1,1.29,2.58,4.16,4.16,0,0,1-1.11,2.9,9.26,9.26,0,0,1-2.88,2.05,20.73,20.73,0,0,1-3.79,1.39c-1.35.36-2.64.68-3.86.94a.64.64,0,0,0-.35.15,1.29,1.29,0,0,0-.2.35c-.06.23-.12.48-.17.76s-.09.56-.12.82a4.61,4.61,0,0,0,.91,3,3.35,3.35,0,0,0,2.85,1.29,4.73,4.73,0,0,0,2.55-.72,10.52,10.52,0,0,0,2.26-1.9c.36-.37.64-.55.84-.55a.44.44,0,0,1,.49.5,2.12,2.12,0,0,1,0,.34.91.91,0,0,1-.12.35,17.14,17.14,0,0,1-2.33,3.34,11.41,11.41,0,0,1-3.22,2.53A8.72,8.72,0,0,1,549.16,225.77Zm1.09-13c.66-.2,1.36-.43,2.1-.7a8.54,8.54,0,0,0,2.06-1.06,6.25,6.25,0,0,0,1.58-1.66,5,5,0,0,0,.75-2.38,2,2,0,0,0-.35-1.11,1.16,1.16,0,0,0-1-.52,3,3,0,0,0-1.76.62,8,8,0,0,0-1.66,1.63,9.47,9.47,0,0,0-1.31,2.28,10.81,10.81,0,0,0-.72,2.6C549.87,212.76,550,212.85,550.25,212.79Z"/><path class="cls-1" d="M569.07,225.72a3.66,3.66,0,0,1-2.45-.92,4.14,4.14,0,0,1-1.29-2.75,9.17,9.17,0,0,1,.77-4.36l2.72-7.13c.17-.46.2-.76.1-.89a.41.41,0,0,0-.3-.2,3.43,3.43,0,0,0-1.11.35,7.9,7.9,0,0,0-1.51.84l-.67.39a1,1,0,0,1-.47.2.57.57,0,0,1-.65-.64,1.8,1.8,0,0,1,.25-.72,4.63,4.63,0,0,1,.8-1,24.46,24.46,0,0,1,2-1.75q1.14-.92,2.4-1.74a18.68,18.68,0,0,1,2.43-1.34,5.15,5.15,0,0,1,2-.52,2.21,2.21,0,0,1,1.42.45,2,2,0,0,1,.59,1.54,8.44,8.44,0,0,1-.72,3l-3.71,9.76a2.73,2.73,0,0,0,0,2.52,1.92,1.92,0,0,0,1.68.84,2.51,2.51,0,0,0,1.46-.61,10,10,0,0,0,1.66-1.66,16.78,16.78,0,0,0,2.77-5.06,5.35,5.35,0,0,0,.38-1.19c.08-.42.15-.88.2-1.36a14.88,14.88,0,0,1,.22-1.51c.1-.53.21-1.09.34-1.68a3.78,3.78,0,0,1,.43-1.17,4.39,4.39,0,0,1,1-1.26,8.62,8.62,0,0,1,1.49-1.07,4.78,4.78,0,0,1,2.13-.37,1.38,1.38,0,0,1,1.06.45,2.4,2.4,0,0,1,.52,1.44,6.66,6.66,0,0,1-.39,2.57,14.79,14.79,0,0,1-1.32,3c-.54,1-1,1.85-1.46,2.68a11,11,0,0,0-.79,1.93,5.18,5.18,0,0,0-.25,1.78,4,4,0,0,0,.47,2.18,1.87,1.87,0,0,0,1.76.89,3.82,3.82,0,0,0,2.36-.91,10.64,10.64,0,0,0,2.17-2.4,14,14,0,0,0,1.64-3.25,10.39,10.39,0,0,0,.62-3.44,5.71,5.71,0,0,0-.22-1.64,10.06,10.06,0,0,0-.57-1.38c-.3-.56-.57-1-.8-1.39a1.75,1.75,0,0,1-.34-.84c0-.27.26-.63.79-1.09a9,9,0,0,1,1.83-1.24,4.1,4.1,0,0,1,1.78-.55,1.78,1.78,0,0,1,1.44,1,5.85,5.85,0,0,1,.65,3.12,11.87,11.87,0,0,1-.87,4.31,24.6,24.6,0,0,1-2.28,4.4,35.07,35.07,0,0,1-3.15,4.17,19.13,19.13,0,0,1-4.23,3.76,8.16,8.16,0,0,1-4.39,1.44,3.78,3.78,0,0,1-2.77-1,4.21,4.21,0,0,1-1.21-2.67,9,9,0,0,1,.47-3.69l.2,1.63a14.3,14.3,0,0,1-2.51,3,11.15,11.15,0,0,1-3,2A8.53,8.53,0,0,1,569.07,225.72Z"/><path class="cls-1" d="M604.34,225.77a5.93,5.93,0,0,1-2.82-.82,8,8,0,0,1-2.53-2.18,4.92,4.92,0,0,1-1-3.05,16.23,16.23,0,0,1,1.14-6,19.09,19.09,0,0,1,3-5.17,15.22,15.22,0,0,1,4.29-3.64,9.76,9.76,0,0,1,4.88-1.37,6.46,6.46,0,0,1,4.16,1.09,3.29,3.29,0,0,1,1.29,2.58,4.17,4.17,0,0,1-1.12,2.9,9.21,9.21,0,0,1-2.87,2.05,21.29,21.29,0,0,1-3.79,1.39c-1.36.36-2.65.68-3.87.94a.6.6,0,0,0-.34.15.92.92,0,0,0-.2.35,6.56,6.56,0,0,0-.18.76c0,.29-.09.56-.12.82a4.62,4.62,0,0,0,.92,3,3.33,3.33,0,0,0,2.85,1.29,4.77,4.77,0,0,0,2.55-.72,10.72,10.72,0,0,0,2.25-1.9c.36-.37.65-.55.84-.55a.44.44,0,0,1,.5.5,2.24,2.24,0,0,1,0,.34.67.67,0,0,1-.12.35,16.72,16.72,0,0,1-2.33,3.34,11.28,11.28,0,0,1-3.22,2.53A8.72,8.72,0,0,1,604.34,225.77Zm1.09-13c.66-.2,1.36-.43,2.11-.7a8.48,8.48,0,0,0,2.05-1.06,6.13,6.13,0,0,0,1.59-1.66,5,5,0,0,0,.74-2.38,2,2,0,0,0-.35-1.11,1.16,1.16,0,0,0-1-.52,3,3,0,0,0-1.76.62,8.2,8.2,0,0,0-1.66,1.63,10.19,10.19,0,0,0-1.31,2.28,11.29,11.29,0,0,0-.72,2.6C605.05,212.76,605.17,212.85,605.43,212.79Z"/><path class="cls-1" d="M619.65,225.72a2.61,2.61,0,0,1-2-.92,2.68,2.68,0,0,1-.85-1.81,3.68,3.68,0,0,1,.25-1.09l8.37-24.72a4.58,4.58,0,0,0,.4-2.4,1.29,1.29,0,0,0-1-.92,1.77,1.77,0,0,1-.84-.44,2,2,0,0,1-.3-.55,1,1,0,0,1,.1-.49,1,1,0,0,1,.59-.35,22.75,22.75,0,0,1,2.43-.59c.86-.17,1.69-.33,2.48-.5a18.33,18.33,0,0,0,1.93-.49,3.7,3.7,0,0,1,.69-.2l.87-.18c.28,0,.47-.07.57-.07s.35.12.47.37a.75.75,0,0,1,.07.62,5.38,5.38,0,0,1-.24.94c-.13.4-.27.81-.4,1.24l-9,25.91a1.45,1.45,0,0,0-.12.37,1.83,1.83,0,0,0,0,.32c0,.43.19.65.59.65a2.29,2.29,0,0,0,1.17-.5,13.61,13.61,0,0,0,1.51-1.24c.52-.49,1-1,1.43-1.43.07-.07.13-.14.2-.2a.28.28,0,0,1,.2-.1.41.41,0,0,1,.44.3,1.47,1.47,0,0,1,.1.49,3.35,3.35,0,0,1-.69,1.81,12.3,12.3,0,0,1-1.86,2.1,19.84,19.84,0,0,1-2.52,2,17.27,17.27,0,0,1-2.68,1.49A5.89,5.89,0,0,1,619.65,225.72Z"/><path class="cls-1" d="M635.4,225.72a2.61,2.61,0,0,1-2-.92,2.72,2.72,0,0,1-.85-1.81,3.68,3.68,0,0,1,.25-1.09l8.37-24.72a4.58,4.58,0,0,0,.4-2.4,1.29,1.29,0,0,0-1-.92,1.77,1.77,0,0,1-.84-.44,2,2,0,0,1-.3-.55,1,1,0,0,1,.1-.49,1,1,0,0,1,.6-.35,22,22,0,0,1,2.42-.59c.86-.17,1.69-.33,2.48-.5a17.7,17.7,0,0,0,1.93-.49,3.84,3.84,0,0,1,.7-.2l.86-.18c.28,0,.47-.07.57-.07a.52.52,0,0,1,.47.37.8.8,0,0,1,.08.62,6.76,6.76,0,0,1-.25.94c-.13.4-.27.81-.4,1.24l-9,25.91a1.17,1.17,0,0,0-.13.37c0,.12,0,.22,0,.32,0,.43.2.65.59.65a2.29,2.29,0,0,0,1.17-.5,12.75,12.75,0,0,0,1.51-1.24c.52-.49,1-1,1.43-1.43l.2-.2a.28.28,0,0,1,.2-.1.43.43,0,0,1,.45.3,1.77,1.77,0,0,1,.1.49,3.37,3.37,0,0,1-.7,1.81,12.3,12.3,0,0,1-1.86,2.1,19.16,19.16,0,0,1-2.52,2,16.83,16.83,0,0,1-2.68,1.49A5.89,5.89,0,0,1,635.4,225.72Z"/><path class="cls-1" d="M655.16,225.77a5.93,5.93,0,0,1-2.82-.82,8.13,8.13,0,0,1-2.53-2.18,4.92,4.92,0,0,1-1-3.05,16.23,16.23,0,0,1,1.14-6,19.09,19.09,0,0,1,3-5.17,15.36,15.36,0,0,1,4.29-3.64,9.78,9.78,0,0,1,4.88-1.37,6.46,6.46,0,0,1,4.16,1.09,3.29,3.29,0,0,1,1.29,2.58,4.12,4.12,0,0,1-1.12,2.9,9.21,9.21,0,0,1-2.87,2.05,21,21,0,0,1-3.79,1.39c-1.35.36-2.64.68-3.86.94a.64.64,0,0,0-.35.15,1.07,1.07,0,0,0-.2.35c-.06.23-.12.48-.17.76s-.09.56-.12.82a4.61,4.61,0,0,0,.91,3,3.34,3.34,0,0,0,2.85,1.29,4.77,4.77,0,0,0,2.55-.72,10.24,10.24,0,0,0,2.25-1.9c.37-.37.65-.55.85-.55a.44.44,0,0,1,.49.5c0,.1,0,.21,0,.34a.77.77,0,0,1-.13.35,16.67,16.67,0,0,1-2.32,3.34,11.41,11.41,0,0,1-3.22,2.53A8.79,8.79,0,0,1,655.16,225.77Zm1.09-13c.66-.2,1.37-.43,2.11-.7a8.54,8.54,0,0,0,2.06-1.06,6.25,6.25,0,0,0,1.58-1.66,4.85,4.85,0,0,0,.74-2.38,2,2,0,0,0-.34-1.11,1.16,1.16,0,0,0-1-.52,3,3,0,0,0-1.76.62,8,8,0,0,0-1.66,1.63,9.47,9.47,0,0,0-1.31,2.28,10.81,10.81,0,0,0-.72,2.6C655.87,212.76,656,212.85,656.25,212.79Z"/><path class="cls-1" d="M672.9,225.77a3,3,0,0,1-1.14-.3,4,4,0,0,1-1.21-.79,1.59,1.59,0,0,1-.53-1.19,3.52,3.52,0,0,1,.1-.75c.07-.26.15-.54.25-.84l5-13a1.09,1.09,0,0,0,.08-.81c-.08-.22-.29-.33-.62-.33a3,3,0,0,0-1.61.4c-.41.27-.85.58-1.31.94a.91.91,0,0,1-.62.18.42.42,0,0,1-.42-.43,2.75,2.75,0,0,1,.79-2.08,7.82,7.82,0,0,1,2.28-1.78,8.91,8.91,0,0,1,2.35-1.06,8.6,8.6,0,0,1,2.45-.38,2.43,2.43,0,0,1,2,.77,3.08,3.08,0,0,1,.59,2.06,7.49,7.49,0,0,1-.76,2.92l-1.89,4.51c-.13.23-.1.36.1.39a.46.46,0,0,0,.5-.29,60.5,60.5,0,0,1,3.39-5.4,17.67,17.67,0,0,1,3.37-3.67,5.63,5.63,0,0,1,3.49-1.34,3.08,3.08,0,0,1,2.41.92,3.27,3.27,0,0,1,.81,2.25,5.86,5.86,0,0,1-.59,2.53,6.36,6.36,0,0,1-1.46,2,2.57,2.57,0,0,1-1.66.76.9.9,0,0,1-.84-.52,5,5,0,0,1-.5-1.56,6.52,6.52,0,0,0-.45-1.51,1,1,0,0,0-.89-.67,2.38,2.38,0,0,0-1.76,1.12,27.93,27.93,0,0,0-2,3.1c-.27.39-.64,1-1.12,1.83s-1,1.73-1.56,2.72-1.12,2-1.68,2.93-1,1.78-1.44,2.47a13.82,13.82,0,0,1-2,2.78A2.88,2.88,0,0,1,672.9,225.77Z"/><path class="cls-1" d="M689.54,239.34a4.43,4.43,0,0,1-2.52-.77,2.63,2.63,0,0,1-1.14-2.35,3.8,3.8,0,0,1,.42-1.73,3.93,3.93,0,0,1,1.11-1.39,2.1,2.1,0,0,1,2.58-.2,9.31,9.31,0,0,1,1.14.79c.39.27.81.52,1.24.77a2.85,2.85,0,0,0,1.48.37,4.21,4.21,0,0,0,2.95-1.48,12.81,12.81,0,0,0,2.5-3.87,18.39,18.39,0,0,0,1.36-4.78,37.25,37.25,0,0,0,.42-5.72,35.39,35.39,0,0,0-.47-6.54,12.34,12.34,0,0,0-1.06-3.49c-.4-.71-.76-1.07-1.09-1.07a1.41,1.41,0,0,0-1,.62,13.4,13.4,0,0,0-1,1.41q-.46.79-.72,1.29a4.5,4.5,0,0,1-.37.7c-.18.29-.37.44-.57.44s-.2-.12-.3-.37a3.09,3.09,0,0,1-.14-1,6,6,0,0,1,.67-2.72,10.36,10.36,0,0,1,1.73-2.48,9,9,0,0,1,2.28-1.8,4.73,4.73,0,0,1,2.3-.67,2.92,2.92,0,0,1,2.31,1,8.78,8.78,0,0,1,1.51,2.82,34.69,34.69,0,0,1,1.18,5.5,43.19,43.19,0,0,1,.25,8.32q0,.9.18.84t.57-.69a23.51,23.51,0,0,0,2.37-7.28,56.33,56.33,0,0,0,.6-9.31c0-.27.2-.54.62-.82a2,2,0,0,1,1-.42,2.61,2.61,0,0,1,1.19.42,5.44,5.44,0,0,1,1.39,1.14,2.4,2.4,0,0,1,.64,1.66,18.44,18.44,0,0,1-1.76,7.16,53.07,53.07,0,0,1-4.87,8.69,81.84,81.84,0,0,1-7.29,9.16,43.23,43.23,0,0,1-4.08,3.94,24.68,24.68,0,0,1-4.14,2.87A7.62,7.62,0,0,1,689.54,239.34Z"/></svg>